<?xml version="1.0" encoding="UTF-8"?>
<svg xmlns="http://www.w3.org/2000/svg" xmlns:xlink="http://www.w3.org/1999/xlink" viewBox="0 0 369 68.249996" width="100%" height="100%" preserveAspectRatio="none" version="1.2">
<defs>
<clipPath id="clip1">
  <path d="M 2.003906 28 L 366.992188 28 L 366.992188 40 L 2.003906 40 Z M 2.003906 28 "/>
</clipPath>
</defs>
<g id="surface1">
<g clip-path="url(#clip1)" clip-rule="nonzero">
<path style=" stroke:none;fill-rule:nonzero;fill:rgb(95.289612%,36.468506%,42.749023%);fill-opacity:1;" d="M 377.015625 35.3125 L 376.742188 36.078125 C 376.355469 35.3125 376.464844 35.695312 376.355469 35.105469 C 374.808594 34.988281 374.640625 33.871094 373.539062 33.398438 L 373.539062 33.488281 C 373.09375 33.960938 372.597656 34.046875 372.15625 33.960938 C 372.15625 33.636719 371.660156 33.578125 372.15625 33.164062 C 371.660156 32.988281 371.21875 33.015625 370.71875 33.074219 C 370.609375 33.015625 370.5 33.074219 370.390625 33.136719 C 370.003906 33.222656 369.617188 33.371094 369.175781 33.457031 C 368.730469 33.488281 368.289062 33.546875 367.847656 33.578125 C 367.628906 33.546875 367.460938 33.488281 367.242188 33.371094 L 367.460938 32.929688 C 366.300781 32.632812 367.183594 34.019531 365.96875 33.429688 C 365.527344 33.046875 366.136719 32.871094 365.914062 32.839844 C 363.375 32.988281 360.777344 32.546875 358.402344 33.578125 C 357.851562 32.632812 355.699219 33.515625 354.8125 32.605469 C 354.316406 32.871094 353.820312 32.898438 353.488281 33.136719 C 353.15625 33.105469 352.878906 33.074219 352.660156 33.105469 C 352.714844 32.988281 352.769531 32.839844 352.878906 32.898438 C 351.058594 31.222656 350.5625 34.402344 348.847656 32.339844 C 348.515625 33.664062 345.921875 32.046875 344.707031 33.253906 L 344.375 33.253906 C 344.265625 33.046875 344.265625 32.839844 344.320312 32.632812 C 341.117188 32.546875 337.582031 31.988281 334.820312 31.898438 C 332.445312 33.105469 329.1875 31.25 327.085938 32.957031 C 326.757812 32.871094 326.09375 32.722656 325.484375 32.605469 C 325.265625 32.546875 325.042969 32.515625 324.769531 32.457031 C 323.386719 32.222656 321.839844 32.074219 320.402344 32.488281 L 320.625 32.28125 C 318.03125 32.339844 314.714844 32.398438 312.894531 33.457031 C 312.175781 31.78125 311.070312 32.105469 309.964844 31.574219 C 308.199219 32.3125 304.664062 32.046875 301.957031 32.695312 C 301.570312 31.929688 299.746094 32.988281 299.636719 31.871094 C 292.070312 33.898438 282.847656 33.015625 274.949219 31.28125 L 275.058594 31.191406 C 274.339844 31.605469 273.511719 32.339844 272.738281 33.015625 C 271.46875 32.957031 270.199219 32.898438 268.929688 32.8125 C 268.488281 32.78125 267.988281 32.753906 267.546875 32.753906 C 267.546875 32.695312 267.601562 32.632812 267.769531 32.515625 C 266.386719 32.988281 265.007812 31.605469 263.351562 32.429688 L 263.292969 32.132812 L 262.464844 32.457031 L 262.246094 32.457031 C 262.300781 32.164062 262.355469 31.808594 262.6875 31.75 C 258.542969 31.574219 254.347656 31.664062 250.148438 31.808594 C 244.570312 31.632812 238.992188 31.722656 233.136719 32.515625 C 230.265625 32.574219 227.394531 32.574219 224.578125 32.488281 L 225.074219 32.132812 L 223.695312 32.457031 C 223.363281 32.457031 223.03125 32.429688 222.699219 32.429688 C 222.699219 32.398438 222.753906 32.398438 222.753906 32.371094 C 219.605469 31.691406 216.292969 32.695312 213.199219 32.488281 C 213.199219 32.3125 213.695312 31.957031 213.308594 31.75 C 210.992188 32.722656 209.71875 30.398438 208.449219 32.457031 C 208.339844 32.371094 208.285156 31.898438 208.558594 31.722656 C 202.152344 32.3125 195.636719 32.191406 189.230469 31.75 C 183.871094 33.515625 178.128906 31.839844 172.550781 33.105469 L 172.273438 33.105469 L 172.328125 32.8125 C 171.445312 32.957031 170.5625 33.074219 169.621094 33.136719 C 167.578125 33.164062 165.535156 33.195312 163.546875 33.222656 C 162.21875 33.164062 160.949219 33.105469 159.625 33.015625 L 159.625 32.957031 C 159.460938 32.957031 159.238281 32.988281 159.074219 32.988281 C 156.089844 32.78125 153.050781 32.574219 150.070312 32.664062 C 149.074219 32.605469 148.246094 32.605469 147.417969 32.632812 C 142.835938 32.25 138.25 31.78125 133.609375 32.015625 C 131.015625 31.75 128.363281 31.78125 125.65625 31.929688 L 125.710938 31.871094 C 125.710938 31.898438 125.65625 31.898438 125.65625 31.929688 C 122.121094 32.132812 118.53125 32.574219 114.941406 32.78125 C 113.5625 32.515625 112.125 32.398438 110.414062 32.898438 L 110.746094 32.515625 C 110.027344 32.695312 109.308594 32.8125 108.589844 32.839844 C 108.257812 32.8125 107.929688 32.8125 107.597656 32.78125 C 107.429688 32.753906 107.320312 32.722656 107.15625 32.664062 C 107.320312 32.605469 107.265625 32.488281 107.542969 32.398438 C 103.839844 30.75 99.53125 32.457031 95.554688 32.339844 L 96.054688 31.605469 C 94.066406 32.457031 90.585938 31.574219 88.042969 31.957031 L 88.210938 31.605469 L 86.882812 32.074219 L 86.882812 31.367188 C 85.449219 31.339844 84.011719 31.425781 82.632812 31.515625 C 77.328125 30.691406 72.027344 30.808594 66.726562 31.308594 C 63.796875 31.222656 60.980469 31.308594 58.164062 31.457031 C 53.691406 31.691406 49.214844 32.105469 44.578125 32.3125 C 44.6875 32.25 44.742188 32.046875 44.910156 31.988281 C 44.578125 32.164062 44.246094 32.457031 43.859375 32.515625 L 43.636719 32.515625 C 43.527344 32.371094 43.804688 32.222656 43.914062 32.164062 C 42.257812 31.074219 38.945312 32.753906 37.894531 31.929688 C 37.453125 32.015625 37.230469 32.398438 37.398438 32.722656 C 33.308594 32.8125 29.277344 32.695312 25.300781 31.808594 C 20.71875 33.046875 15.800781 30.074219 10.609375 30.367188 L 10.773438 30.808594 C 9.007812 29.425781 6.578125 32.664062 5.527344 30.605469 L 5.75 30.515625 C 4.808594 29.484375 3.375 32.929688 2.820312 31.691406 L 2.65625 32.191406 C 1.441406 32.3125 2.546875 31.605469 1.660156 31.398438 C 1.332031 31.457031 1.496094 32.3125 0.777344 32.015625 C 0.722656 29.957031 -2.148438 32.429688 -2.148438 30.101562 C -1.484375 30.101562 -3.085938 29.191406 -1.597656 28.71875 C -2.039062 28.484375 -3.972656 28.574219 -3.859375 29.542969 C -4.082031 30.605469 -4.648438 31.488281 -3.75 32.3125 L -3.472656 31.546875 C -3.085938 32.3125 -3.199219 31.929688 -3.085938 32.515625 C -1.542969 32.632812 -1.375 33.753906 -0.269531 34.222656 L -0.269531 34.136719 C 0.171875 33.664062 0.667969 33.578125 1.109375 33.664062 C 1.109375 33.988281 1.605469 34.078125 1.109375 34.460938 C 1.605469 34.636719 2.046875 34.605469 2.546875 34.546875 C 2.65625 34.605469 2.765625 34.546875 2.878906 34.488281 C 3.265625 34.402344 3.648438 34.253906 4.09375 34.164062 C 4.535156 34.136719 4.976562 34.078125 5.417969 34.046875 C 5.640625 34.078125 5.804688 34.136719 6.023438 34.253906 L 5.804688 34.695312 C 6.964844 34.988281 6.082031 33.605469 7.296875 34.195312 C 7.738281 34.578125 7.128906 34.753906 7.351562 34.785156 C 9.890625 34.636719 12.488281 35.078125 14.863281 34.046875 C 15.414062 34.988281 17.570312 34.105469 18.453125 35.019531 C 18.949219 34.753906 19.445312 34.722656 19.777344 34.488281 C 20.109375 34.519531 20.386719 34.546875 20.605469 34.519531 C 20.550781 34.636719 20.496094 34.785156 20.386719 34.722656 C 22.207031 36.402344 22.707031 33.222656 24.417969 35.285156 C 24.75 33.960938 27.34375 35.578125 28.558594 34.371094 L 28.890625 34.371094 C 29 34.578125 29 34.785156 28.945312 34.988281 C 32.148438 35.078125 35.683594 35.636719 38.445312 35.726562 C 40.820312 34.519531 44.078125 36.371094 46.179688 34.664062 C 47.835938 35.046875 50.488281 35.8125 52.804688 35.164062 L 52.585938 35.371094 C 54.410156 35.34375 56.507812 35.285156 58.273438 34.929688 C 59.046875 34.753906 59.765625 34.546875 60.375 34.195312 C 61.035156 35.871094 62.195312 35.546875 63.300781 36.078125 C 65.066406 35.34375 68.601562 35.609375 71.308594 34.960938 C 71.695312 35.726562 73.519531 34.664062 73.628906 35.785156 C 81.195312 33.753906 90.417969 34.636719 98.316406 36.371094 L 98.207031 36.460938 C 98.925781 36.050781 99.753906 35.3125 100.527344 34.636719 C 101.796875 34.695312 103.066406 34.753906 104.335938 34.84375 C 104.78125 34.871094 105.277344 34.902344 105.71875 34.902344 C 105.71875 34.960938 105.664062 35.019531 105.496094 35.136719 C 106.878906 34.664062 108.257812 36.078125 109.917969 35.226562 L 109.972656 35.519531 L 110.800781 35.195312 L 111.019531 35.195312 C 110.964844 35.488281 110.910156 35.84375 110.578125 35.902344 C 114.722656 36.078125 118.863281 35.988281 123.117188 35.84375 C 128.695312 36.019531 134.273438 35.929688 140.128906 35.136719 C 143 35.078125 145.871094 35.078125 148.6875 35.164062 L 148.191406 35.519531 L 149.574219 35.195312 C 149.902344 35.195312 150.234375 35.226562 150.566406 35.226562 C 150.566406 35.253906 150.511719 35.253906 150.511719 35.285156 C 153.660156 35.960938 156.972656 34.960938 160.066406 35.164062 C 160.066406 35.34375 159.570312 35.695312 159.957031 35.902344 C 162.277344 34.929688 163.546875 37.253906 164.816406 35.195312 C 164.925781 35.285156 164.980469 35.753906 164.707031 35.929688 C 171.113281 35.34375 177.628906 35.460938 184.039062 35.902344 C 189.394531 34.136719 195.140625 35.8125 200.71875 34.546875 L 200.992188 34.546875 L 200.9375 34.84375 C 201.820312 34.695312 202.707031 34.578125 203.644531 34.519531 L 209.773438 34.429688 C 211.046875 34.488281 212.371094 34.546875 213.640625 34.636719 L 213.640625 34.695312 C 213.863281 34.695312 214.027344 34.664062 214.25 34.664062 C 217.230469 34.871094 220.269531 35.078125 223.25 34.988281 C 224.191406 35.046875 225.074219 35.046875 225.902344 35.019531 C 230.488281 35.402344 235.070312 35.871094 239.710938 35.636719 C 242.304688 35.902344 244.957031 35.871094 247.664062 35.726562 L 247.609375 35.785156 C 247.609375 35.753906 247.664062 35.753906 247.664062 35.726562 C 251.199219 35.519531 254.789062 35.078125 258.378906 34.871094 C 259.761719 35.136719 261.195312 35.253906 262.90625 34.753906 L 262.578125 35.136719 C 263.238281 34.960938 264.011719 34.84375 264.675781 34.8125 C 265.007812 34.84375 265.339844 34.84375 265.667969 34.871094 C 265.835938 34.902344 265.945312 34.929688 266.113281 34.988281 C 265.945312 35.046875 266 35.164062 265.726562 35.253906 C 269.425781 36.902344 273.734375 35.195312 277.710938 35.3125 L 277.214844 36.050781 C 279.203125 35.195312 282.679688 36.078125 285.222656 35.695312 L 285.054688 36.050781 L 286.382812 35.578125 L 286.382812 36.285156 C 287.816406 36.3125 289.253906 36.226562 290.632812 36.136719 C 295.9375 36.960938 301.238281 36.84375 306.542969 36.34375 C 312.949219 36.519531 319.023438 35.929688 325.320312 35.519531 C 326.3125 35.460938 327.75 35.371094 328.6875 35.34375 C 328.578125 35.402344 328.523438 35.609375 328.359375 35.667969 C 328.6875 35.488281 329.019531 35.195312 329.40625 35.136719 L 329.683594 35.136719 C 329.792969 35.285156 329.515625 35.429688 329.40625 35.488281 C 331.0625 36.578125 334.378906 34.902344 335.425781 35.726562 C 335.871094 35.636719 336.089844 35.253906 335.925781 34.929688 C 340.011719 34.84375 344.042969 34.960938 348.019531 35.84375 C 352.714844 34.605469 357.628906 37.578125 362.765625 37.285156 L 362.601562 36.84375 C 364.367188 38.226562 366.800781 34.988281 367.847656 37.050781 L 367.628906 37.136719 C 368.566406 38.167969 370.003906 34.753906 370.554688 35.988281 L 370.71875 35.488281 C 371.933594 35.371094 370.832031 36.078125 371.714844 36.285156 C 372.046875 36.226562 371.878906 35.371094 372.597656 35.667969 C 372.652344 37.726562 375.527344 35.253906 375.46875 37.578125 C 374.808594 37.578125 376.410156 38.492188 374.972656 38.964844 C 375.359375 39.199219 377.347656 39.109375 377.238281 38.140625 C 377.347656 37.050781 377.914062 36.136719 377.015625 35.3125 Z M 3.816406 33.722656 C 3.871094 33.695312 3.871094 33.695312 3.871094 33.722656 Z M 356.691406 34.28125 C 356.800781 34.253906 356.855469 34.253906 356.96875 34.222656 C 356.914062 34.339844 356.914062 34.488281 357.078125 34.722656 C 356.96875 34.578125 356.855469 34.429688 356.691406 34.28125 Z M 360.722656 33.695312 C 362.378906 33.578125 364.09375 33.605469 365.75 33.664062 C 364.09375 33.722656 362.4375 33.722656 360.722656 33.695312 Z M 369.394531 33.929688 L 369.449219 33.929688 C 369.449219 33.960938 369.394531 33.960938 369.394531 33.929688 Z M 369.394531 33.929688 "/>
</g>
</g>
</svg>
